<?xml version="1.0" encoding="UTF-8"?>
<svg id="Warstwa_1" xmlns="http://www.w3.org/2000/svg" version="1.1" viewBox="0 0 529.4 312">
  <!-- Generator: Adobe Illustrator 29.5.1, SVG Export Plug-In . SVG Version: 2.1.0 Build 141)  -->
  <defs>
    <style>
      .st0 {
        fill: #1d1d1b;
      }

      .st1 {
        fill: #d3b793;
      }
    </style>
  </defs>
  <path class="st1" d="M379.7,176.1c2.9-2.5,5.8-5.7,8.7-9.2-2.5,2.9-5.5,6.2-8.7,9.2Z"/>
  <path class="st1" d="M14.2,251.8c-30-31.4,25.9-78.5,53.9-88.3,3.2-1.1,11.9-5.4,11.8.3-14.4,17.9-37.9,27.9-47.4,50.7-11.9,28.6,13.4,33.8,36.2,29.8,31.2-5.6,69.1-33.9,71-67.7,2.3-40.9-60.8-46.5-64.8-82.9-4.8-44,85.2-109.1,123.2-82.5,20.9,14.6,6.2,49.5-10.2,62.2-4.2,3.2-15.1,10.3-18.7,3.9,5.5-7.9,12.5-14.7,17.3-23.2,23.2-40.8-18-34.2-41.6-20-18.9,11.4-59,47.9-38.3,71.2s34.5,20.1,47.6,40.2c48.1,73.6-98.1,150.4-140.1,106.3Z"/>
  <path class="st1" d="M151.5,260.9c-2.7-2.7-2.2-9.1.9-11.9,3.3-3,17.1-7,22-8.5,66.5-20.5,160-31.9,229.5-27.7,3.8.2,15,1.2,17.9,2.5,4.5,2,6.7,9.2,1.1,10.3-62.6-2.3-123,3.9-183.9,17.2-18.5,4-67.7,21-82.1,19.7-1.6-.1-4.3-.5-5.4-1.6Z"/>
  <path class="st1" d="M519,107.8c-1.5-8.9-11,4.9-13.4,6.9-5.3,4.4-12.6,8.1-19.7,7.7,4.2-22.3-6.5-41.2-31.4-32.1-25.9,9.5-46.2,52.4-66,76.4,0,0,0,0,0,0-2.9,3.5-5.8,6.7-8.7,9.2,0,0,0,0,0,0-9.4,8.8-20.7,15.8-27.6,8.3-4.6-5-1.6-28.5,1.6-34,1.2-2.1,12.1-10.8,15.3-13.3,23-18.5,63.2-74,64.2-104.5.5-16.8-15.5-24.5-29.2-15.1-24.3,16.7-50.9,75.6-62.1,103.3-8.4,20.6-1.8,20-18.3,37.1-5.8,8.4-30.5,39.3-42.2,26.6-4.6-5-1.6-28.5,1.6-34,1.2-2.1,12.1-10.8,15.3-13.3,23-18.5,63.2-74,64.2-104.5.5-16.8-15.5-24.5-29.2-15.1-24.3,16.7-50.9,75.6-62.1,103.3-8.4,20.6-8,28.4-24.5,45.5-9.4,9.8-30.5,27.5-44.9,23.2-5.6-1.7-7.5-12.7-4.5-17.4,25.1,2,62.1-36.1,58.3-60.6-2-12.8-16.3-15-27-13.1-26,4.4-57,60.6-54.1,85.3,1.4,11.2,8,21.6,19.7,23.6,25.7,4.4,47.5-22.1,64-37.9-2.2,20.8,7.2,36.1,29.8,33,10.7-1.5,24.5-14.7,31.8-22.7,1.7-1.9,6.7-7.7,9.1-10.3-2.2,20.8,7.2,36.1,29.8,33,10.7-1.5,24.5-14.7,31.8-22.7,1.7-1.9,10.5-11.5,12.8-14.1-1.3,29.5,20.2,38.9,44.2,23.2,18.3-12,30.3-34.1,37.3-54.4,10.9-.9,36.5-13.8,34.4-26.7ZM407.8,39.1c1.4-1.5,8-9.2,10.1-7,3.7,3.8-14.3,39.6-17.6,45.4-10.9,19.3-25.4,39.5-40.9,55.1,11.6-31.2,25.8-68.4,48.4-93.5ZM337.1,39.1c1.4-1.5,8-9.2,10.1-7,3.7,3.8-14.3,39.6-17.6,45.4-10.9,19.3-25.4,39.5-40.9,55.1,11.6-31.2,25.8-68.4,48.4-93.5ZM222.5,120.6c12.3-14.1,21.8-13.4,13.3,7-5.9,14.1-21.2,30.8-36.3,34.4,6.1-13.7,13.1-30,22.9-41.3ZM432.8,182c-18.1,3.5-4.7-33.1-1.4-40.9,2.8-6.6,6.8-15.7,11.6-21.6l.9,2.2c2.8,8.1,13.8,10.9,21.7,12.2-3.6,12.6-19,45.4-32.8,48.1ZM469.4,121.2c-13.6-1.9-18-20.5-6.7-22.7,11.3-2.2,9.6,17.4,6.7,22.7Z"/>
  <g>
    <path class="st0" d="M330.1,306.2l3.7-17.4h17.7l-3.7,17.4h-17.7Z"/>
    <path class="st0" d="M396.8,267.4c3.2-.4,5.5-.9,7-1.5,2.6-1,4.1-2.6,4.6-4.7.5-2.6,0-4.4-1.6-5.4-1.6-1-4.1-1.5-7.7-1.5s-6.9,1-9,2.9c-1.4,1.4-2.6,3.4-3.6,5.8h-16.1c1.6-5.6,4.1-10.1,7.6-13.7,5.6-5.6,13.8-8.4,24.5-8.4s12.9,1.4,17.7,4.1c4.8,2.8,6.4,8,4.8,15.7l-6.3,29.2c-.4,2-.9,4.5-1.4,7.4-.4,2.2-.3,3.7,0,4.4s1,1.4,2,1.9l-.5,2.5h-18.1c-.2-1.3-.3-2.5-.3-3.6,0-1.1.2-2.4.4-3.9-2.8,2.5-5.9,4.6-9.3,6.4-4.1,2.1-8.3,3.1-12.9,3.1s-10.2-1.6-13.2-4.9c-3.1-3.3-3.9-8-2.7-14,1.7-7.8,5.9-13.5,12.7-17,3.7-1.9,8.9-3.3,15.5-4.1l5.8-.7ZM397.1,278l-3.9.7c-3.7.6-6.3,1.4-8.1,2.3-2.9,1.5-4.7,3.9-5.3,7.1-.6,2.8-.3,4.9,1,6.2,1.3,1.3,3.1,1.9,5.3,1.9,3.6,0,7.1-1.1,10.6-3.2,3.5-2.1,5.9-5.9,7.2-11.5l1.3-6.2c-1.2.7-2.3,1.2-3.5,1.6-1.2.4-2.7.8-4.7,1.1Z"/>
    <path class="st0" d="M479.4,241c.2,0,.6,0,1.3.1l-3.6,17.1c-1-.1-1.9-.2-2.7-.2-.8,0-1.5,0-2,0-6.7,0-11.7,2.2-14.9,6.5-1.8,2.5-3.2,6.2-4.3,11.3l-6.4,30.4h-16.8l13.5-63.7h15.9l-2.3,11.1c3.5-4.2,6.3-7.1,8.5-8.7,3.7-2.6,8-3.9,13-3.9h.8Z"/>
    <path class="st0" d="M499.2,288.6c-.5,2.6-.6,4.2,0,4.9.5.6,2.5,1,5.9,1s1,0,1.6,0c.6,0,1.1,0,1.7,0l-2.7,12.4-7.9.3c-7.9.3-13-1.1-15.2-4.1-1.4-1.9-1.8-4.8-.9-8.8l8.4-39.2h-8.9l2.5-11.9h8.9l3.8-17.8h16.5l-3.8,17.8h10.3l-2.5,11.9h-10.3l-7.2,33.6Z"/>
  </g>
</svg>